0
SECTION
2
HEADER
9
$INSUNITS
70
4
9
$ACADVER
1
AC1014
9
$HANDSEED
5
FFFF
0
ENDSEC
0
SECTION
2
TABLES
0
TABLE
2
VPORT
5
8
100
AcDbSymbolTable
0
ENDTAB
0
TABLE
2
LTYPE
5
5
100
AcDbSymbolTable
0
LTYPE
5
14
100
AcDbSymbolTableRecord
100
AcDbLinetypeTableRecord
2
BYBLOCK
70
0
0
LTYPE
5
15
100
AcDbSymbolTableRecord
100
AcDbLinetypeTableRecord
2
BYLAYER
70
0
0
ENDTAB
0
TABLE
2
LAYER
5
2
100
AcDbSymbolTable
70
2
0
LAYER
5
50
100
AcDbSymbolTableRecord
100
AcDbLayerTableRecord
2
0
70
0
6
CONTINUOUS
0
ENDTAB
0
TABLE
2
STYLE
5
3
100
AcDbSymbolTable
70
1
0
STYLE
5
11
100
AcDbSymbolTableRecord
100
AcDbTextStyleTableRecord
2
STANDARD
70
0
0
ENDTAB
0
TABLE
2
VIEW
5
6
100
AcDbSymbolTable
70
0
0
ENDTAB
0
TABLE
2
UCS
5
7
100
AcDbSymbolTable
70
0
0
ENDTAB
0
TABLE
2
APPID
5
9
100
AcDbSymbolTable
70
2
0
APPID
5
12
100
AcDbSymbolTableRecord
100
AcDbRegAppTableRecord
2
ACAD
70
0
0
ENDTAB
0
TABLE
2
DIMSTYLE
5
A
100
AcDbSymbolTable
70
1
0
ENDTAB
0
TABLE
2
BLOCK_RECORD
5
1
100
AcDbSymbolTable
70
1
0
BLOCK_RECORD
5
1F
100
AcDbSymbolTableRecord
100
AcDbBlockTableRecord
2
*MODEL_SPACE
0
BLOCK_RECORD
5
1B
100
AcDbSymbolTableRecord
100
AcDbBlockTableRecord
2
*PAPER_SPACE
0
ENDTAB
0
ENDSEC
0
SECTION
2
BLOCKS
0
BLOCK
5
20
100
AcDbEntity
100
AcDbBlockBegin
2
*MODEL_SPACE
0
ENDBLK
5
21
100
AcDbEntity
100
AcDbBlockEnd
0
BLOCK
5
1C
100
AcDbEntity
100
AcDbBlockBegin
2
*PAPER_SPACE
0
ENDBLK
5
1D
100
AcDbEntity
100
AcDbBlockEnd
0
ENDSEC
0
SECTION
2
ENTITIES
0
LWPOLYLINE
5
100
100
AcDbEntity
8
0
100
AcDbPolyline
90
4
70
1
43
0.0
10
-12.000000000000002
20
-14.499999999999993
10
12.000000000000002
20
-14.499999999999993
10
12.000000000000002
20
33.800000000000011
10
-12.000000000000002
20
33.800000000000011
0
CIRCLE
5
101
100
AcDbEntity
8
0
100
AcDbCircle
10
0
20
0
30
0
40
3.5000000000000009
210
0
220
0
230
1
0
LWPOLYLINE
5
102
100
AcDbEntity
8
0
100
AcDbPolyline
90
4
70
1
43
0.0
10
59.999999999999986
20
100
10
-59.999999999999993
20
100.00000000000001
10
-60
20
-99.999999999999986
10
59.999999999999986
20
-100
0
LINE
5
103
100
AcDbEntity
8
0
100
AcDbLine
10
59.999999999999986
20
100
30
0
11
-60
21
-99.999999999999986
31
0
0
LINE
5
104
100
AcDbEntity
8
0
100
AcDbLine
10
-59.999999999999993
20
100.00000000000001
30
0
11
59.999999999999986
21
-100
31
0
0
LINE
5
105
100
AcDbEntity
8
0
100
AcDbLine
10
-60.000000000000007
20
-89.999999999999986
30
0
11
59.999999999999986
21
-89.999999999999986
31
0
0
LINE
5
106
100
AcDbEntity
8
0
100
AcDbLine
10
0
20
0
30
0
11
-8.8817841970012523e-15
21
-100
31
0
0
CIRCLE
5
107
100
AcDbEntity
8
0
100
AcDbCircle
10
47.999999999999979
20
-89.999999999999986
30
0
40
2.1499999999999919
210
0
220
0
230
1
0
CIRCLE
5
108
100
AcDbEntity
8
0
100
AcDbCircle
10
35.999999999999979
20
-89.999999999999986
30
0
40
2.1499999999999986
210
0
220
0
230
1
0
CIRCLE
5
109
100
AcDbEntity
8
0
100
AcDbCircle
10
-36
20
-89.999999999999986
30
0
40
2.1499999999999986
210
0
220
0
230
1
0
CIRCLE
5
110
100
AcDbEntity
8
0
100
AcDbCircle
10
-48
20
-89.999999999999986
30
0
40
2.1499999999999919
210
0
220
0
230
1
0
LINE
5
111
100
AcDbEntity
8
0
100
AcDbLine
10
0
20
0
30
0
11
59.999999999999986
21
0
31
0
0
CIRCLE
5
112
100
AcDbEntity
8
0
100
AcDbCircle
10
47.999999999999979
20
89.999999999999986
30
0
40
2.1499999999999919
210
0
220
0
230
1
0
CIRCLE
5
113
100
AcDbEntity
8
0
100
AcDbCircle
10
35.999999999999979
20
89.999999999999986
30
0
40
2.1499999999999986
210
0
220
0
230
1
0
CIRCLE
5
114
100
AcDbEntity
8
0
100
AcDbCircle
10
-36
20
89.999999999999986
30
0
40
2.1499999999999986
210
0
220
0
230
1
0
CIRCLE
5
115
100
AcDbEntity
8
0
100
AcDbCircle
10
-48
20
89.999999999999986
30
0
40
2.1499999999999919
210
0
220
0
230
1
0
LINE
5
116
100
AcDbEntity
8
0
100
AcDbLine
10
-60
20
-79.999999999999986
30
0
11
59.999999999999986
21
-79.999999999999986
31
0
0
LWPOLYLINE
5
117
100
AcDbEntity
8
0
100
AcDbPolyline
90
4
70
1
43
0.0
10
-60
20
-72.999999999999986
10
59.999999999999986
20
-72.999999999999986
10
59.999999999999986
20
-14.499999999999993
10
-60
20
-14.499999999999993
0
LWPOLYLINE
5
118
100
AcDbEntity
8
0
100
AcDbPolyline
90
4
70
1
43
0.0
10
-50.000000000000014
20
-79.999999999999986
10
49.999999999999986
20
-79.999999999999986
10
50
20
-16.499999999999993
10
-50
20
-16.499999999999993
0
LINE
5
119
100
AcDbEntity
8
0
100
AcDbLine
10
-50.000000000000014
20
-79.999999999999986
30
0
11
50
21
-16.499999999999993
31
0
0
LINE
5
120
100
AcDbEntity
8
0
100
AcDbLine
10
49.999999999999986
20
-79.999999999999986
30
0
11
-50
21
-16.499999999999993
31
0
0
CIRCLE
5
121
100
AcDbEntity
8
0
100
AcDbCircle
10
-47
20
-19.499999999999993
30
0
40
3.0000000000000018
210
0
220
0
230
1
0
CIRCLE
5
122
100
AcDbEntity
8
0
100
AcDbCircle
10
-47
20
-76.999999999999986
30
0
40
2.9999999999999987
210
0
220
0
230
1
0
CIRCLE
5
123
100
AcDbEntity
8
0
100
AcDbCircle
10
-47
20
-19.499999999999993
30
0
40
1.6000000000000003
210
0
220
0
230
1
0
CIRCLE
5
124
100
AcDbEntity
8
0
100
AcDbCircle
10
-47
20
-76.999999999999986
30
0
40
1.6000000000000014
210
0
220
0
230
1
0
CIRCLE
5
125
100
AcDbEntity
8
0
100
AcDbCircle
10
47
20
-19.5
30
0
40
1.6000000000000003
210
0
220
0
230
1
0
CIRCLE
5
126
100
AcDbEntity
8
0
100
AcDbCircle
10
46.999999999999986
20
-77
30
0
40
1.6000000000000014
210
0
220
0
230
1
0
ENDSEC
0
SECTION
2
OBJECTS
0
DICTIONARY
5
C
100
AcDbDictionary
3
ACAD_GROUP
350
D
3
ACAD_MLINESTYLE
350
17
0
DICTIONARY
5
D
100
AcDbDictionary
0
DICTIONARY
5
1A
330
C
100
AcDbDictionary
0
DICTIONARY
5
17
100
AcDbDictionary
0
ENDSEC
0
EOF
